<?xml version="1.0" standalone="no"?>
<!DOCTYPE svg PUBLIC "-//W3C//DTD SVG 20010904//EN"
 "http://www.w3.org/TR/2001/REC-SVG-20010904/DTD/svg10.dtd">
<svg version="1.0" xmlns="http://www.w3.org/2000/svg"
 width="512.000000pt" height="512.000000pt" viewBox="0 0 512.000000 512.000000"
 preserveAspectRatio="xMidYMid meet">
<metadata>
Created by potrace 1.14, written by Peter Selinger 2001-2017
</metadata>
<g transform="translate(0.000000,512.000000) scale(0.100000,-0.100000)"
fill="#000000" stroke="none">
<path d="M1679 5116 c-2 -2 -29 -7 -60 -10 -75 -9 -223 -49 -318 -87 -200 -79
-424 -247 -545 -409 -23 -30 -46 -61 -53 -67 -25 -27 -113 -192 -146 -274 -37
-91 -71 -218 -84 -310 -14 -100 -9 -318 12 -549 2 -19 6 -69 9 -110 3 -41 8
-95 10 -120 3 -25 8 -83 11 -130 4 -47 8 -96 10 -110 1 -14 6 -66 9 -115 4
-50 9 -108 11 -130 2 -22 7 -70 10 -107 3 -38 7 -98 10 -135 3 -38 8 -86 10
-108 2 -22 7 -80 10 -130 4 -49 8 -101 10 -115 3 -14 7 -63 11 -110 3 -47 7
-98 9 -115 1 -16 5 -70 10 -120 4 -49 8 -106 10 -125 2 -19 7 -73 10 -120 4
-47 8 -101 10 -120 2 -19 6 -69 9 -110 6 -74 12 -138 21 -235 2 -27 7 -84 10
-125 3 -41 8 -95 10 -120 3 -25 7 -75 10 -112 6 -83 14 -175 20 -248 2 -30 7
-86 10 -125 17 -203 20 -220 46 -256 44 -63 -67 -59 1777 -59 1562 1 1679 2
1709 18 17 9 40 28 51 42 27 35 30 54 47 260 3 41 8 98 10 125 2 28 7 82 10
120 3 39 8 90 10 115 2 25 7 79 10 120 3 41 8 95 10 120 2 25 7 79 10 120 3
41 8 95 10 120 2 25 7 79 10 120 3 41 8 95 10 120 2 25 7 83 10 130 4 47 8
101 10 120 2 19 6 69 10 110 3 41 8 95 10 120 2 25 7 79 10 120 3 41 8 95 10
120 2 25 7 77 10 115 3 39 8 93 10 120 2 28 7 86 10 130 4 44 8 96 10 115 2
19 6 78 10 130 3 52 8 106 10 120 2 14 7 63 10 110 4 47 8 105 10 130 2 25 7
79 10 120 3 41 7 95 10 120 3 25 7 83 11 130 3 47 8 101 10 120 2 19 6 100 8
180 3 125 1 161 -20 260 -37 170 -57 232 -117 351 -69 138 -135 228 -257 349
-201 202 -421 320 -700 377 -123 25 -386 24 -505 -1 -158 -34 -301 -87 -425
-160 -34 -20 -66 -36 -71 -36 -6 0 -41 18 -79 40 -123 73 -255 122 -440 161
-50 10 -353 23 -361 15z m375 -326 c264 -66 487 -222 630 -442 146 -226 191
-430 163 -738 -4 -47 -10 -114 -12 -150 -3 -36 -7 -90 -10 -120 -5 -61 -12
-151 -20 -250 -3 -36 -7 -81 -9 -100 -3 -19 -8 -80 -11 -135 -4 -55 -8 -106
-10 -115 -1 -8 -6 -58 -10 -110 -3 -52 -8 -111 -10 -130 -2 -19 -6 -73 -10
-120 -3 -47 -7 -98 -9 -115 -3 -16 -7 -70 -11 -120 -4 -49 -8 -106 -10 -125
-2 -19 -6 -76 -10 -127 -3 -50 -7 -99 -9 -110 -2 -10 -7 -63 -10 -118 -4 -55
-9 -111 -11 -125 -2 -14 -6 -65 -10 -115 -3 -49 -8 -106 -10 -125 -2 -19 -7
-73 -10 -120 -8 -106 -18 -234 -30 -360 -2 -25 -7 -81 -10 -125 -3 -44 -8
-100 -10 -125 -3 -25 -8 -81 -11 -125 -3 -44 -7 -89 -9 -100 -1 -11 -3 -26 -4
-32 -2 -19 -1520 -19 -1522 0 -1 6 -3 21 -4 32 -3 22 -14 149 -20 235 -3 30
-7 84 -11 120 -3 36 -7 83 -9 105 -2 36 -8 100 -20 240 -13 147 -16 175 -20
235 -4 60 -7 93 -20 240 -2 30 -7 87 -10 125 -4 39 -8 90 -10 115 -2 25 -6 79
-10 120 -3 41 -8 95 -10 120 -2 25 -7 77 -10 115 -3 39 -8 95 -10 125 -5 54
-9 107 -20 245 -3 39 -8 86 -10 105 -3 19 -7 71 -10 115 -3 44 -7 96 -10 115
-2 19 -7 73 -10 120 -3 47 -8 105 -10 130 -2 25 -7 77 -10 115 -3 39 -8 97
-11 130 -3 33 -7 85 -9 115 -2 30 -7 91 -12 135 -14 143 -9 343 11 429 96 416
428 734 849 811 106 20 310 12 421 -15z m1506 -1 c386 -100 672 -389 771 -780
24 -92 30 -249 16 -399 -4 -47 -10 -112 -12 -145 -4 -57 -13 -159 -20 -235 -2
-19 -6 -75 -10 -125 -3 -49 -8 -108 -10 -130 -2 -22 -7 -76 -10 -120 -4 -44
-8 -93 -10 -110 -2 -16 -7 -70 -10 -120 -8 -112 -13 -174 -20 -247 -6 -66 -12
-139 -20 -248 -3 -41 -8 -91 -10 -110 -2 -19 -7 -75 -10 -125 -3 -49 -8 -101
-10 -115 -2 -14 -6 -65 -10 -115 -3 -49 -8 -106 -10 -125 -2 -19 -7 -73 -10
-120 -4 -47 -8 -101 -10 -120 -2 -19 -6 -75 -10 -125 -4 -49 -8 -101 -10 -115
-2 -14 -7 -69 -10 -123 -4 -54 -8 -108 -10 -120 -2 -12 -6 -66 -10 -121 -4
-54 -8 -106 -10 -115 -1 -9 -6 -62 -10 -119 -4 -56 -8 -110 -10 -120 -2 -9 -4
-23 -4 -29 -1 -10 -128 -13 -600 -13 l-598 0 2 27 c2 16 6 66 10 113 9 101 12
142 14 153 0 4 179 7 397 7 389 0 397 0 435 22 53 30 76 81 84 193 7 90 9 112
19 235 3 36 8 97 11 135 4 39 8 88 10 110 2 22 6 81 10 130 4 50 8 101 10 115
2 14 7 66 10 115 3 50 8 104 10 120 2 17 7 71 10 120 4 50 8 106 10 125 2 19
7 73 10 120 3 47 8 99 10 116 2 17 7 71 10 120 4 49 8 107 11 129 2 22 6 72
10 110 3 39 7 88 10 110 2 22 6 96 9 165 5 147 -9 226 -59 335 l-34 73 35 49
c43 60 84 148 108 233 25 86 26 288 2 376 -76 278 -297 488 -577 548 -125 27
-341 7 -432 -40 -15 -8 -33 -14 -40 -14 -7 1 -31 29 -53 63 -22 34 -62 88 -88
119 l-48 58 63 29 c104 48 194 74 328 95 71 11 289 -4 370 -25z m-143 -583
c87 -23 145 -57 208 -120 49 -49 105 -135 105 -161 0 -3 -130 -5 -289 -5
l-288 0 -11 63 c-13 74 -17 93 -31 143 -12 44 -11 45 49 67 83 29 177 34 257
13z m307 -608 c-11 -36 -69 -120 -105 -154 -43 -40 -100 -75 -164 -100 -66
-25 -231 -25 -288 0 l-38 17 7 102 c3 56 8 108 9 117 2 8 4 21 4 28 1 9 66 12
292 12 l290 0 -7 -22z m-52 -546 c16 -47 22 -170 9 -189 -3 -6 -49 -22 -101
-37 -168 -47 -500 -136 -506 -136 -2 0 -2 19 1 43 2 23 7 67 9 97 13 157 18
215 20 217 1 2 18 -2 37 -8 19 -6 81 -12 139 -15 118 -4 220 13 310 52 30 13
58 23 61 24 3 0 13 -21 21 -48z m-17 -549 c-3 -27 -16 -182 -19 -232 -1 -14
-8 -28 -16 -32 -8 -4 -116 -35 -240 -68 -124 -34 -256 -70 -293 -80 l-68 -20
5 42 c5 40 19 218 19 245 0 6 1 12 3 12 5 0 520 142 544 150 14 5 35 9 47 9
18 1 21 -4 18 -26z m-52 -614 c-1 -13 -5 -60 -8 -104 -10 -110 -12 -128 -13
-146 -1 -10 -21 -20 -54 -28 -29 -8 -109 -29 -178 -48 -200 -55 -344 -94 -364
-98 -17 -4 -18 1 -12 53 3 31 9 95 12 142 3 47 9 88 12 92 6 6 85 30 212 62 8
3 76 21 150 41 74 20 142 39 150 41 8 2 29 7 45 13 41 13 50 9 48 -20z m-48
-602 c-3 -12 -8 -65 -21 -232 -4 -44 -8 -91 -9 -105 -2 -14 -3 -31 -4 -38 -1
-10 -64 -12 -298 -10 l-298 3 2 25 c6 97 16 206 19 209 4 4 228 68 269 77 11
2 90 24 175 48 85 24 158 41 162 39 4 -2 5 -9 3 -16z"/>
<path d="M1700 4513 c-320 -55 -568 -294 -627 -603 -13 -64 -5 -332 12 -450 2
-14 6 -65 10 -115 3 -49 8 -108 10 -130 2 -22 7 -76 10 -120 4 -44 8 -98 10
-120 2 -22 7 -76 10 -120 3 -44 8 -98 10 -120 2 -22 7 -76 10 -120 3 -44 8
-96 10 -115 2 -19 6 -73 10 -120 3 -47 8 -101 10 -120 2 -19 7 -75 10 -123 4
-48 8 -96 10 -105 1 -9 6 -66 10 -126 4 -60 8 -119 10 -130 2 -12 6 -61 10
-111 3 -49 8 -108 10 -130 4 -38 8 -82 20 -240 3 -38 8 -90 10 -115 2 -25 7
-81 10 -125 4 -44 8 -96 10 -115 2 -19 7 -75 10 -125 8 -117 31 -166 89 -194
40 -20 59 -21 422 -21 l380 0 42 27 c52 34 68 73 76 188 4 50 9 108 11 130 3
22 7 72 10 110 9 124 16 199 20 240 3 22 7 76 10 120 3 44 8 96 10 115 2 19 7
76 10 125 3 50 8 106 10 125 2 19 7 67 10 105 13 161 16 202 20 240 3 22 7 76
10 120 3 44 7 96 9 115 3 19 7 73 10 120 4 47 8 99 10 115 2 17 7 71 10 120 4
50 9 106 11 125 2 19 7 71 10 115 7 100 14 184 30 355 3 36 8 92 10 125 2 33
8 96 12 140 9 101 9 288 0 337 -52 277 -271 510 -551 585 -58 15 -242 25 -296
16z m199 -303 c83 -16 161 -58 226 -124 104 -106 142 -218 130 -385 -4 -53 -9
-114 -10 -136 -6 -74 -16 -190 -20 -230 -2 -22 -7 -78 -10 -125 -3 -47 -7 -96
-10 -110 -2 -14 -6 -68 -10 -120 -3 -52 -8 -111 -10 -130 -2 -19 -6 -69 -10
-110 -3 -41 -8 -95 -10 -120 -2 -25 -7 -79 -10 -120 -4 -41 -8 -95 -10 -120
-2 -25 -7 -79 -10 -120 -3 -41 -7 -95 -10 -120 -3 -25 -7 -72 -10 -105 -12
-160 -16 -213 -20 -245 -2 -19 -7 -71 -10 -115 -3 -44 -8 -103 -11 -131 -5
-60 -10 -114 -19 -244 -4 -52 -8 -106 -11 -120 -2 -14 -7 -65 -10 -115 -4 -49
-8 -99 -9 -110 -1 -11 -3 -28 -4 -37 -1 -17 -18 -18 -211 -18 -193 0 -210 1
-211 18 -1 9 -3 26 -4 37 -1 11 -6 61 -9 110 -4 50 -9 108 -11 130 -5 50 -17
195 -30 360 -3 39 -8 90 -10 115 -2 25 -7 79 -10 120 -3 41 -8 93 -10 115 -2
22 -7 75 -10 117 -3 43 -7 97 -10 120 -2 24 -7 81 -10 128 -3 47 -8 99 -10
115 -2 17 -7 71 -10 120 -4 50 -8 108 -10 130 -2 22 -7 74 -10 115 -3 41 -8
91 -10 110 -2 19 -7 73 -10 120 -3 47 -7 105 -9 130 -6 66 -21 247 -31 370 -3
41 -8 93 -10 115 -21 186 -14 278 31 370 90 182 292 283 493 245z"/>
</g>
</svg>
